# xmcd
#
# Track frame offsets:
#	150
#	17752
#	36492
#	52535
#	78237
#	95730
#	122562
#	140235
#	156240
#	173985
#	194017
#	215272
#	223512
#	236342
#
# Disc length: 3387 seconds
#
# Revision: 8
# Processed by: cddbd v1.5.2PL0 Copyright (c) Steve Scherf et al.
# Submitted via: audiograbber 1.83.01
#
DISCID=c30d390e
DTITLE=Elton John - Don't Shoot Me I'm Only the Piano Player [JapanVinyl Replic
DTITLE=a]
DYEAR=1973
DGENRE=Pop
TTITLE0=Daniel
TTITLE1=Teacher I Need You
TTITLE2=Elderberry Wine
TTITLE3=Blues For My Baby And Me
TTITLE4=Midnight Creeper
TTITLE5=Have Mercy On The Criminal
TTITLE6=I'm Gonna Be A Teenage Idol
TTITLE7=Texan Love Song
TTITLE8=Crocodile Rock
TTITLE9=High Flying Bird
TTITLE10=Screw You (Young Man's Blues)
TTITLE11=Jack Rabbit
TTITLE12=Whenever You're Ready (We'll Go Steady Again)
TTITLE13=Skyline Pigeon (piano version)
EXTD=
EXTT0=
EXTT1=
EXTT2=
EXTT3=
EXTT4=
EXTT5=
EXTT6=
EXTT7=
EXTT8=
EXTT9=
EXTT10=
EXTT11=
EXTT12=
EXTT13=
PLAYORDER=
